<?xml version="1.0" standalone="no"?><svg xmlns="http://www.w3.org/2000/svg" viewBox="0 0 1440 320"><path fill="#af4261" fill-opacity="1" d="M0,96L34.3,128C68.6,160,137,224,206,218.7C274.3,213,343,139,411,138.7C480,139,549,213,617,256C685.7,299,754,309,823,309.3C891.4,309,960,299,1029,277.3C1097.1,256,1166,224,1234,229.3C1302.9,235,1371,277,1406,298.7L1440,320L1440,320L1405.7,320C1371.4,320,1303,320,1234,320C1165.7,320,1097,320,1029,320C960,320,891,320,823,320C754.3,320,686,320,617,320C548.6,320,480,320,411,320C342.9,320,274,320,206,320C137.1,320,69,320,34,320L0,320Z"></path></svg>